<svg width="1248" height="67" viewBox="0 0 1248 67" fill="none" xmlns="http://www.w3.org/2000/svg">
<path d="M17.9004 1.9999H37.0076L54.908 64.9999H38.9183L35.5997 52.3999H18.001L14.6824 64.9999H0L17.9004 1.9999ZM26.75 20.0999L21.3196 39.9999H32.3816L27.1523 20.0999H26.75ZM73.6026 1.9999L91.503 34.9999H91.9053V1.9999H106.387V64.9999H94.2183L73.7032 29.0999H73.3009V64.9999H58.7192V1.9999H73.6026ZM163.085 31.2999V35.6999C163.085 53.7999 154.939 66.0999 137.743 66.0999C120.546 66.0999 112.4 53.7999 112.4 35.6999V31.2999C112.4 13.1999 120.546 0.899902 137.743 0.899902C154.939 0.899902 163.085 13.1999 163.085 31.2999ZM146.693 39.0999V27.8999C146.693 18.0999 143.475 13.9999 137.743 13.9999C132.01 13.9999 128.792 18.0999 128.792 27.8999V39.0999C128.792 48.8999 132.01 52.9999 137.743 52.9999C143.475 52.9999 146.693 48.8999 146.693 39.0999ZM183.987 1.9999L201.887 34.9999H202.29V1.9999H216.771V64.9999H204.603L184.088 29.0999H183.685V64.9999H169.103V1.9999H183.987ZM224.395 1.9999H240.284V64.9999H224.395V1.9999ZM282.055 64.9999H272.401L262.344 22.9999H261.942V64.9999H247.964V1.9999H270.289L278.133 36.4999H278.535L286.279 1.9999H307.498V64.9999H292.614V22.9999H292.212L282.055 64.9999ZM329.217 1.9999H348.324L366.224 64.9999H350.234L346.916 52.3999H329.317L325.999 64.9999H311.316L329.217 1.9999ZM338.066 20.0999L332.636 39.9999H343.698L338.468 20.0999H338.066ZM403.602 52.3999H408.731C416.172 52.3999 420.094 48.9999 420.094 38.8999V28.0999C420.094 17.9999 416.172 14.5999 408.731 14.5999H403.602V52.3999ZM387.713 64.9999V1.9999H410.138C428.441 1.9999 436.285 12.9999 436.285 31.7999V35.1999C436.285 53.9999 428.441 64.9999 410.138 64.9999H387.713ZM442.316 1.9999H458.205V64.9999H442.316V1.9999ZM463.875 20.6999C463.875 8.99991 472.322 0.899902 485.597 0.899902C500.681 0.899902 508.525 9.59991 508.525 22.1999V23.7999H494.446V22.7999C494.446 16.7999 491.631 12.8999 485.496 12.8999C481.373 12.8999 478.859 15.2999 478.859 18.8999C478.859 21.7999 480.569 23.5999 483.887 24.6999L493.24 27.7999C503.497 31.1999 509.531 36.1999 509.531 46.2999C509.531 59.1999 499.977 66.0999 487.206 66.0999C471.92 66.0999 463.271 57.6999 463.271 44.8999V43.4999H477.451V44.3999C477.451 50.3999 480.77 54.0999 487.105 54.0999C491.429 54.0999 494.145 51.8999 494.145 48.2999C494.145 44.9999 492.335 43.3999 488.513 42.1999L478.859 39.1999C470.311 36.4999 463.875 31.6999 463.875 20.6999ZM542.2 64.9999H526.412V14.9999H510.623V1.9999H558.29V14.9999H542.2V64.9999ZM563.994 1.9999H579.884V64.9999H563.994V1.9999ZM587.565 1.9999H603.454V51.9999H627.187V64.9999H587.565V1.9999ZM632.936 1.9999H648.825V51.9999H672.558V64.9999H632.936V1.9999ZM718.332 51.9999V64.9999H678.308V1.9999H718.131V14.9999H693.895V26.6999H711.997V39.4999H693.895V51.9999H718.332ZM771.929 64.9999H755.939C754.732 62.4999 754.028 58.8999 753.626 51.3999C753.324 45.5999 751.615 42.9999 746.486 42.9999H740.151V64.9999H724.563V1.9999H747.693C763.884 1.9999 771.426 9.5999 771.426 21.7999C771.426 30.5999 766.197 35.9999 760.464 37.3999C766.096 39.1999 768.409 42.7999 769.012 50.6999C769.716 59.2999 770.119 62.2999 771.929 64.9999ZM740.151 30.7999H747.089C753.023 30.7999 755.939 28.2999 755.939 22.7999C755.939 17.6999 753.023 14.5999 747.089 14.5999H740.151V30.7999ZM777.104 1.9999H792.993V64.9999H777.104V1.9999ZM814.753 1.9999H833.86L851.76 64.9999H835.771L832.452 52.3999H814.854L811.535 64.9999H796.853L814.753 1.9999ZM823.603 20.0999L818.172 39.9999H829.234L824.005 20.0999H823.603ZM871.64 35.6999V31.2999C871.64 13.1999 879.585 0.899902 896.58 0.899902C913.173 0.899902 920.313 11.7999 920.313 27.8999V29.4999H905.228V27.8999C905.228 18.0999 902.513 13.9999 896.781 13.9999C891.049 13.9999 888.032 18.0999 888.032 27.8999V39.0999C888.032 48.8999 891.049 52.9999 896.781 52.9999C902.513 52.9999 905.228 48.8999 905.228 39.0999V37.4999H920.313V39.0999C920.313 55.1999 913.173 66.0999 896.58 66.0999C879.585 66.0999 871.64 53.7999 871.64 35.6999ZM973.745 64.9999H957.755C956.548 62.4999 955.844 58.8999 955.442 51.3999C955.14 45.5999 953.431 42.9999 948.302 42.9999H941.966V64.9999H926.379V1.9999H949.509C965.7 1.9999 973.242 9.5999 973.242 21.7999C973.242 30.5999 968.013 35.9999 962.28 37.3999C967.912 39.1999 970.225 42.7999 970.828 50.6999C971.532 59.2999 971.935 62.2999 973.745 64.9999ZM941.966 30.7999H948.905C954.839 30.7999 957.755 28.2999 957.755 22.7999C957.755 17.6999 954.839 14.5999 948.905 14.5999H941.966V30.7999ZM1018.95 51.9999V64.9999H978.92V1.9999H1018.74V14.9999H994.507V26.6999H1012.61V39.4999H994.507V51.9999H1018.95ZM1039.26 1.9999H1058.37L1076.27 64.9999H1060.28L1056.96 52.3999H1039.36L1036.04 64.9999H1021.35L1039.26 1.9999ZM1048.11 20.0999L1042.68 39.9999H1053.74L1048.51 20.0999H1048.11ZM1103.75 64.9999H1087.96V14.9999H1072.17V1.9999H1119.84V14.9999H1103.75V64.9999ZM1125.54 1.9999H1141.43V64.9999H1125.54V1.9999ZM1179.49 64.9999H1163.6L1145.29 1.9999H1161.59L1171.94 40.6999H1172.35L1182.8 1.9999H1197.79L1179.49 64.9999ZM1210.23 1.9999H1229.34L1247.24 64.9999H1231.25L1227.93 52.3999H1210.33L1207.01 64.9999H1192.33L1210.23 1.9999ZM1219.08 20.0999L1213.65 39.9999H1224.71L1219.48 20.0999H1219.08Z" fill="#1F1E1B"/>
</svg>
